#define bell_width 14
#define bell_height 14
static unsigned char bell_bits[] = {
   0xc0, 0x00, 0xf0, 0x03, 0x18, 0x06, 0x08, 0x04, 0x08, 0x04, 0x08, 0x04,
   0x0c, 0x0c, 0x06, 0x18, 0x7f, 0x30, 0x01, 0x20, 0x01, 0x20, 0xff, 0x3f,
   0x00, 0x01, 0x00, 0x06 };
