#define instagram_width 14
#define instagram_height 14
static unsigned char instagram_bits[] = {
   0xfe, 0x1f, 0x2b, 0x30, 0x29, 0x20, 0x29, 0x2c, 0x29, 0x2c, 0xe9, 0x21,
   0x1f, 0x3e, 0xd1, 0x22, 0xd1, 0x22, 0x11, 0x22, 0xe1, 0x21, 0x01, 0x20,
   0x03, 0x30, 0xfe, 0x1f };
