#define notification_b_width 14
#define notification_b_height 14
static unsigned char notification_b_bits[] = {
   0x00, 0x00, 0x00, 0x05, 0x00, 0x0e, 0x00, 0x1d, 0x80, 0x08, 0xf0, 0x14,
   0x18, 0x02, 0x0c, 0x02, 0xc6, 0x02, 0x23, 0x03, 0xb9, 0x19, 0xed, 0x07,
   0xc7, 0x00, 0x01, 0x00 };
