#define notification_width 44
#define notification_height 44
static unsigned char notification_bits[] = {
   0x00, 0x00, 0x00, 0x00, 0x00, 0x00, 0x00, 0x00, 0x00, 0x00, 0x00, 0x00,
   0x00, 0x00, 0x00, 0x00, 0x00, 0x00, 0x00, 0x00, 0x00, 0x00, 0x00, 0x00,
   0x00, 0x00, 0x00, 0x00, 0x00, 0x00, 0x00, 0x00, 0x00, 0x00, 0x00, 0x00,
   0x00, 0x00, 0x00, 0x00, 0x00, 0x00, 0x00, 0x00, 0x00, 0x00, 0x32, 0x00,
   0x00, 0x00, 0x00, 0x00, 0x7c, 0x00, 0x00, 0x00, 0x00, 0x00, 0xcc, 0x00,
   0x00, 0x00, 0x00, 0x00, 0x96, 0x01, 0x00, 0x00, 0x00, 0x00, 0x23, 0x03,
   0x00, 0x00, 0x00, 0x80, 0x47, 0x06, 0x00, 0x00, 0x00, 0xc0, 0x8c, 0x06,
   0x00, 0x00, 0x00, 0x60, 0x18, 0x03, 0x00, 0x00, 0xe0, 0x3f, 0xb0, 0x03,
   0x00, 0x00, 0x30, 0x00, 0xe0, 0x04, 0x00, 0x00, 0x18, 0x00, 0x60, 0x00,
   0x00, 0x00, 0x0c, 0x00, 0x30, 0x00, 0x00, 0x00, 0x06, 0x00, 0x18, 0x00,
   0x00, 0x00, 0x03, 0x00, 0x08, 0x00, 0x00, 0x80, 0x01, 0x00, 0x08, 0x00,
   0x00, 0xc0, 0x00, 0x06, 0x08, 0x00, 0x00, 0x60, 0x30, 0x0f, 0x08, 0x00,
   0x00, 0x30, 0xf8, 0x19, 0x08, 0x00, 0x00, 0x18, 0xcc, 0x30, 0x08, 0x00,
   0x00, 0x0c, 0x86, 0x61, 0x08, 0x00, 0x00, 0x06, 0x03, 0xc3, 0x0c, 0x00,
   0x00, 0x83, 0x01, 0x86, 0x05, 0x00, 0x80, 0x81, 0x01, 0x0c, 0x07, 0x00,
   0xc0, 0xf0, 0x07, 0x18, 0x03, 0x00, 0x60, 0xfe, 0x38, 0xb0, 0x81, 0x01,
   0xf0, 0x0f, 0xe0, 0xe0, 0x78, 0x00, 0xf8, 0x01, 0x80, 0xc7, 0x0f, 0x00,
   0x7e, 0x00, 0x00, 0xfe, 0x01, 0x00, 0x0f, 0x00, 0x00, 0x38, 0x00, 0x00,
   0x01, 0x00, 0x00, 0x00, 0x00, 0x00, 0x00, 0x00, 0x00, 0x00, 0x00, 0x00,
   0x00, 0x00, 0x00, 0x00, 0x00, 0x00, 0x00, 0x00, 0x00, 0x00, 0x00, 0x00,
   0x00, 0x00, 0x00, 0x00, 0x00, 0x00, 0x00, 0x00, 0x00, 0x00, 0x00, 0x00,
   0x00, 0x00, 0x00, 0x00, 0x00, 0x00, 0x00, 0x00, 0x00, 0x00, 0x00, 0x00 };
