#define telegram_width 14
#define telegram_height 14
static unsigned char telegram_bits[] = {
   0x00, 0x30, 0x00, 0x2e, 0xe0, 0x21, 0x1c, 0x20, 0x03, 0x24, 0x01, 0x23,
   0xe6, 0x21, 0x18, 0x11, 0x90, 0x11, 0x52, 0x11, 0xd1, 0x16, 0x60, 0x18,
   0x24, 0x10, 0x00, 0x00 };
