#define whatsapp_big_width 44
#define whatsapp_big_height 44
static unsigned char whatsapp_big_bits[] = {
   0x00, 0x00, 0x00, 0x00, 0x00, 0x00, 0x00, 0x00, 0x00, 0x00, 0x00, 0x00,
   0x00, 0xc0, 0xff, 0xff, 0x00, 0x00, 0x00, 0xe0, 0xff, 0xff, 0x01, 0x00,
   0x00, 0x70, 0x00, 0x80, 0x03, 0x00, 0x00, 0x38, 0x00, 0x00, 0x07, 0x00,
   0x00, 0x1c, 0x00, 0x00, 0x0e, 0x00, 0x00, 0x0e, 0x00, 0x00, 0x1c, 0x00,
   0x00, 0x07, 0x00, 0x00, 0x38, 0x00, 0x80, 0x03, 0x00, 0x00, 0x70, 0x00,
   0xc0, 0x01, 0x00, 0x00, 0xe0, 0x00, 0xe0, 0xc0, 0x01, 0x00, 0xc0, 0x01,
   0x70, 0xe0, 0x03, 0x00, 0x80, 0x03, 0x38, 0x30, 0x07, 0x00, 0x00, 0x07,
   0x18, 0x18, 0x0e, 0x00, 0x00, 0x06, 0x18, 0x18, 0x1c, 0x00, 0x00, 0x06,
   0x18, 0x18, 0x1c, 0x00, 0x00, 0x06, 0x18, 0x18, 0x0e, 0x00, 0x00, 0x06,
   0x18, 0x18, 0x07, 0x00, 0x00, 0x06, 0x18, 0x18, 0x03, 0x00, 0x00, 0x06,
   0x18, 0x18, 0x03, 0x00, 0x00, 0x06, 0x18, 0x18, 0x07, 0x00, 0x00, 0x06,
   0x18, 0x18, 0x0e, 0x00, 0x00, 0x06, 0x18, 0x18, 0x1c, 0x00, 0x00, 0x06,
   0x18, 0x38, 0x38, 0x30, 0x00, 0x06, 0x18, 0x70, 0x70, 0x78, 0x00, 0x06,
   0x18, 0xe0, 0xe0, 0xfc, 0x00, 0x06, 0x18, 0xc0, 0xc1, 0xcf, 0x01, 0x06,
   0x18, 0x80, 0x83, 0x87, 0x03, 0x06, 0x18, 0x00, 0x07, 0x00, 0x03, 0x06,
   0x38, 0x00, 0x0e, 0x00, 0x03, 0x07, 0x30, 0x00, 0x1c, 0xc0, 0x81, 0x03,
   0x30, 0x00, 0xf8, 0xff, 0xc0, 0x01, 0x30, 0x00, 0xf0, 0x7f, 0xe0, 0x00,
   0x38, 0x00, 0x00, 0x00, 0x70, 0x00, 0x18, 0x00, 0x00, 0x00, 0x38, 0x00,
   0x18, 0x00, 0x00, 0x00, 0x1c, 0x00, 0x1c, 0x00, 0x00, 0x00, 0x0e, 0x00,
   0x0c, 0x3f, 0x00, 0x00, 0x07, 0x00, 0xfc, 0x7f, 0x00, 0x80, 0x03, 0x00,
   0xfe, 0xe1, 0xff, 0xff, 0x01, 0x00, 0x0e, 0xc0, 0xff, 0xff, 0x00, 0x00,
   0x00, 0x00, 0x00, 0x00, 0x00, 0x00, 0x00, 0x00, 0x00, 0x00, 0x00, 0x00 };
