#define whatsapp_width 14
#define whatsapp_height 14
static unsigned char whatsapp_bits[] = {
   0xf0, 0x03, 0x18, 0x06, 0x0c, 0x08, 0x36, 0x18, 0x6b, 0x30, 0x69, 0x20,
   0x29, 0x20, 0x49, 0x23, 0x99, 0x26, 0x31, 0x34, 0xe3, 0x1b, 0x02, 0x04,
   0x1e, 0x06, 0xf1, 0x03 };
